<?xml version="1.0" encoding="iso-8859-1"?>
<!-- Uploaded to: SVG Repo, www.svgrepo.com, Generator: SVG Repo Mixer Tools -->
<!DOCTYPE svg PUBLIC "-//W3C//DTD SVG 1.1//EN" "http://www.w3.org/Graphics/SVG/1.1/DTD/svg11.dtd">
<svg fill="green" height="30px" width="30px" version="1.1" id="Capa_1" xmlns="http://www.w3.org/2000/svg" xmlns:xlink="http://www.w3.org/1999/xlink" 
	 viewBox="0 0 449.668 449.668" xml:space="preserve">
<g>
	<path d="M213.134,159.808h212.337c4.822,0,8.544-2.061,9.955-5.513c1.083-2.647,0.481-5.659-1.527-7.718l-85.277-92.536
		l-0.457-0.457c-7.93-7.787-21.202-20.819-33.257-20.819c-1.174,0-2.325,0.122-3.424,0.364
		c-10.504,2.311-27.135,21.282-33.566,29.032c-1.377-0.228-2.778-0.343-4.195-0.343c-10.536,0-20.378,6.232-24.622,15.547
		l-44.306,70.521l-0.206,0.334l-0.15,0.344c-0.537,1.231-1.963,4.501,0.12,7.682C206.891,159.808,211.59,159.808,213.134,159.808z"
		/>
	<path d="M437.668,173.064h-31.159H293.705h-88.243c-2.396,0-4.648-0.938-6.342-2.643c-1.677-1.687-2.594-3.912-2.581-6.268
		c0.028-5.036-1.922-9.787-5.491-13.375c-3.586-3.605-8.355-5.591-13.432-5.591H93.494c-5.452,0-9.927,2.206-12.277,6.053
		c-2.35,3.847-2.271,8.835,0.217,13.686l5.807,11.323c4.364,8.511,15.273,15.177,24.837,15.177h64.3c4.962,0,9,4.037,9,9v142.05
		h-16.031V221.484l-0.156-0.61c-1.676-6.553-7.558-11.129-14.302-11.129h-7.516c-5.333,0-9.697-0.053-9.771-0.054H91.535
		c-13.749,0-19.775,7.805-24.2,16.291c-1.365,2.168-14.763,23.484-27.995,46.106c-28.703,49.075-28.703,56.473-28.703,59.258v11.214
		C4.661,343.24,0,348.322,0,354.478v5.514c0,6.617,5.383,12,12,12h47.089c-0.015,0.47-0.036,0.938-0.036,1.412
		c0,23.986,19.512,43.5,43.495,43.5c23.984,0,43.497-19.514,43.497-43.5c0-0.474-0.021-0.942-0.036-1.412h150.024
		c-0.015,0.47-0.036,0.938-0.036,1.412c0,23.986,19.513,43.5,43.496,43.5c23.984,0,43.497-19.514,43.497-43.5
		c0-0.474-0.021-0.942-0.036-1.412h0.2c6.617,0,12-5.383,12-12v-5.514c0-6.617-5.383-12-12-12h-13.114
		c-2.038-2.013-4.277-3.822-6.677-5.405l52.54-67.971c5.387-6.969,9.605-19.327,9.605-28.135v-38.389h12.159c6.617,0,12-5.383,12-12
		v-5.514C449.668,178.447,444.285,173.064,437.668,173.064z M102.549,394.184c-11.475,0-20.778-9.304-20.778-20.778
		c0-11.475,9.304-20.777,20.778-20.777c11.475,0,20.779,9.302,20.779,20.777C123.327,384.88,114.024,394.184,102.549,394.184z
		 M143.478,280.917c0,5.457-4.44,9.897-9.898,9.897H63.643c-2.024,0-3.584-0.517-4.073-1.35c-0.481-0.82-0.187-2.4,0.768-4.137
		c1.313-2.151,18.516-30.38,23.607-40.782c5.411-11.055,11.577-11.909,19.697-11.909h29.392c6.513,0,10.444,0,10.444,17.755V280.917
		z M339.494,394.184c-11.475,0-20.779-9.304-20.779-20.778c0-11.475,9.304-20.777,20.779-20.777
		c11.475,0,20.778,9.302,20.778,20.777C360.273,384.88,350.969,394.184,339.494,394.184z"/>
</g>
</svg>